<mxfile host="app.diagrams.net" modified="2022-01-28T19:49:33.140Z" agent="5.0 (X11)" etag="IaN6k4qfUD-CYv6hCjKF" version="16.5.2" type="github">
  <diagram id="ymQfz7w2vXCu5Chr5dhh" name="Page-1">
    <mxGraphModel dx="1420" dy="686" grid="1" gridSize="10" guides="1" tooltips="1" connect="1" arrows="1" fold="1" page="1" pageScale="1" pageWidth="827" pageHeight="1169" math="0" shadow="0">
      <root>
        <mxCell id="0" />
        <mxCell id="1" parent="0" />
        <mxCell id="cAxlqlM82y3g7pvajHF9-1" value="" style="whiteSpace=wrap;html=1;aspect=fixed;" vertex="1" parent="1">
          <mxGeometry x="370" y="310" width="80" height="80" as="geometry" />
        </mxCell>
        <mxCell id="cAxlqlM82y3g7pvajHF9-2" value="" style="shape=card;whiteSpace=wrap;html=1;" vertex="1" parent="1">
          <mxGeometry x="170" y="160" width="80" height="100" as="geometry" />
        </mxCell>
      </root>
    </mxGraphModel>
  </diagram>
</mxfile>
